<svg id="eYIhyRMpS421" xmlns="http://www.w3.org/2000/svg" viewBox="0 0 1024 1024" shape-rendering="geometricPrecision" text-rendering="geometricPrecision"
    project-id="1576b52188594b978a2e66f34e25cd1c" export-id="ccb3e0382b9740c69304288c27b8f4d4"
    cached="false">
    <path d="M522.434024,487.16843l75.868925-76.880511l1.011584-121.390281c1.657655-9.777782-10.074355-24.41285-23.266471-29.335984h-104.193324c-12.738987,2.645139-25.876121,17.829708-26.301228,30.34757l2.023172,120.378694l74.857342,76.880512Z" transform="translate(.000003 0.000001)" fill="#45b04a" stroke="#3f5787" stroke-width="2.048"/>
    <path d="" fill="#3f5787" stroke="#3f5787" stroke-width="2.048"/>
    <path d="M522.434024,487.16843l75.868925-76.880511l1.011584-121.390281c1.657655-9.777782-10.074355-24.41285-23.266471-29.335984h-104.193324c-12.738987,2.645139-25.876121,17.829708-26.301228,30.34757l2.023172,120.378694l74.857342,76.880512Z" transform="translate(.000003 0.000001)" fill="#45b04a" stroke="#3f5787" stroke-width="2.048"/>
    <path d="" fill="#3f5787" stroke="#3f5787" stroke-width="2.048"/>
    <path d="M537.260916,499.362237l80.245853-77.379929l119.41347-1.910615c10.463256.326822,24.487342,16.165432,27.703924,32.480464l.955307,96.486084c-5.766569,10.938094-18.562337,25.846251-30.569849,24.838002h-122.279393l-75.469312-74.514006Z" transform="translate(.000002 0)" fill="#45b04a" stroke="#3f5787" stroke-width="2.048"/>
    <path d="M505.73576,499.362237l-75.469313-77.379929h-126.100626c-16.965824,5.266275-29.702598,22.992762-25.79331,35.346388v91.709545c3.968365,10.887723,16.024315,24.427663,25.793309,24.838001l126.100625.047402l75.469315-74.561407Z" transform="translate(.000006 0.000001)" fill="#45b04a" stroke="#3f5787" stroke-width="2.048"/>
    <path d="M522.505426,517.513085l76.951913,73.558697-.142803,131.832471c-2.950617,17.364172-18.095954,33.001916-31.483771,30.569848l-91.709546,1.910616c-12.352965.502956-28.050057-14.910799-30.567706-32.480464v-133.743087l76.951913-71.648081Z" transform="translate(0 0.000001)" fill="#45b04a" stroke="#3f5787" stroke-width="2.048"/>
</svg>
